<svg height="64" viewBox="0 0 64 64" width="64" xmlns="http://www.w3.org/2000/svg"><g fill="none" fill-rule="evenodd"><path d="m9 47v12m23-12v12m22-12v12" stroke="#bd7575" stroke-linecap="square" stroke-width="2"/><path d="m9 48c3.8659932 0 7-1.6111593 7-11s-3.1340068-21-7-21c-3.86599325 0-7 11.6111593-7 21s3.13400675 11 7 11zm45 0c3.8659932 0 7-1.2083694 7-8.25s-3.1340068-15.75-7-15.75-7 8.7083694-7 15.75 3.1340068 8.25 7 8.25zm-22-2c3.8659932 0 7-2.1146465 7-14.4375s-3.1340068-27.5625-7-27.5625-7 15.2396465-7 27.5625 3.1340068 14.4375 7 14.4375z" fill="#22ba8e"/><path d="m24 61c0-3.8659932-3.1340068-7-7-7s-7 3.1340068-7 7z" fill="#80d25b"/><path d="m36 61c0-3.8659932-3.1340068-7-7-7s-7 3.1340068-7 7z" fill="#80d25b"/><path d="m52 61c0-3.8659932-3.1340068-7-7-7s-7 3.1340068-7 7z" fill="#22ba8e"/><path d="m41 61c0-2.7614237-2.2385763-5-5-5s-5 2.2385763-5 5z" fill="#80d25b"/><path d="m26 61c0-2.7614237-2.2385763-5-5-5s-5 2.2385763-5 5z" fill="#22ba8e"/><path d="m5 61h53.0377224" stroke="#bd7575" stroke-linecap="square" stroke-width="2"/></g></svg>